<svg width="379" height="352" fill="none" xmlns="http://www.w3.org/2000/svg"><path clip-rule="evenodd" d="M185.25 17.98C144.3 5.17 102.2-16.2 59.09 22.83 16 61.87-11.1 96.07 6.4 140.32c17.5 44.24 88.93 16.68 109.69 56.23 20.75 39.55-24.85 75.44-5.19 110.64s34.78 57.75 97.96 35.37c63.19-22.38 57.36-79.32 105.41-112.66 48.05-33.35 100.04-83.27 28.7-172.34C271.6-31.5 226.2 30.8 185.24 17.98Z" stroke="#9E96C6"/><path clip-rule="evenodd" d="M190.04 40.7C156.69 30.29 122.4 12.94 87.3 44.63c-35.1 31.7-57.17 59.47-42.92 95.4 14.25 35.92 72.42 13.55 89.32 45.66 16.9 32.1-20.23 61.25-4.22 89.83 16 28.58 28.32 46.9 79.77 28.72 51.45-18.17 46.7-64.4 85.84-91.48 39.12-27.07 81.46-67.6 23.36-139.93C260.36.51 223.38 51.1 190.04 40.7Z" stroke="#9E96C6"/><path clip-rule="evenodd" d="M200.2 54.06c-26.93-8.47-54.63-22.6-82.98 3.2-28.36 25.8-46.19 48.4-34.67 77.66 11.5 29.24 58.5 11.03 72.15 37.16 13.66 26.14-16.34 49.87-3.41 73.13 12.93 23.26 22.88 38.17 64.44 23.38 41.57-14.79 37.73-52.43 69.34-74.47 31.6-22.04 65.8-55.03 18.88-113.9C257 21.34 227.14 62.52 200.2 54.06Z" stroke="#9E96C6"/><path clip-rule="evenodd" d="M210.23 71.81C188.4 65 165.95 53.6 142.97 74.4c-22.98 20.8-37.43 39.02-28.1 62.59 9.33 23.57 47.42 8.89 58.48 29.96 11.07 21.07-13.24 40.19-2.76 58.94s18.54 30.77 52.23 18.85c33.69-11.93 30.58-42.26 56.2-60.03 25.62-17.76 53.33-44.36 15.3-91.81-38.04-47.45-62.26-14.26-84.09-21.09Z" stroke="#9E96C6"/><path clip-rule="evenodd" d="M212.15 80.12c-17.81-5.59-36.13-14.9-54.88 2.12-18.75 17.01-30.54 31.92-22.93 51.2 7.62 19.3 38.7 7.28 47.72 24.52 9.03 17.24-10.8 32.88-2.26 48.22 8.56 15.34 15.13 25.18 42.62 15.42 27.49-9.75 24.95-34.57 45.85-49.1 20.9-14.54 43.52-36.3 12.48-75.13-31.03-38.82-50.79-11.66-68.6-17.25Z" stroke="#9E96C6"/><path clip-rule="evenodd" d="M218.51 89.73c-14.34-4.57-29.08-12.18-44.17 1.72-15.1 13.9-24.58 26.08-18.45 41.84 6.12 15.76 31.14 5.95 38.4 20.03 7.27 14.08-8.7 26.86-1.81 39.4 6.88 12.53 12.17 20.57 34.3 12.6 22.12-7.97 20.08-28.25 36.9-40.13 16.83-11.87 35.03-29.65 10.05-61.37s-40.88-9.53-55.22-14.1Z" stroke="#9E96C6"/></svg>