<svg width="487" height="453" fill="none" xmlns="http://www.w3.org/2000/svg"><g clip-rule="evenodd" stroke="#96A9C6"><path d="M238.03 23.01C185.35 6.51 131.19-21 75.73 29.26c-55.45 50.27-90.31 94.31-67.8 151.29 22.52 56.98 114.41 21.49 141.12 72.41 26.7 50.93-31.97 97.15-6.68 142.47 25.3 45.33 44.74 74.38 126.03 45.56 81.28-28.82 73.79-102.15 135.6-145.09 61.82-42.93 128.7-107.22 36.91-221.92-91.78-114.7-150.2-34.47-202.88-50.97Z"/><path d="M245.04 49.78c-42.9-13.4-87.01-35.75-132.17 5.07C67.7 95.67 39.3 131.43 57.65 177.7c18.33 46.27 93.18 17.45 114.92 58.8 21.75 41.35-26.03 78.88-5.43 115.68 20.6 36.8 36.44 60.38 102.64 36.98 66.2-23.4 60.1-82.93 110.44-117.8 50.34-34.86 104.8-87.06 30.06-180.19-74.75-93.13-122.33-27.98-165.23-41.38Z"/><path d="M257.4 67.4c-34.76-10.92-70.5-29.13-107.09 4.12-36.59 33.26-59.59 62.4-44.73 100.08 14.85 37.7 75.48 14.22 93.1 47.9 17.62 33.7-21.1 64.27-4.4 94.25 16.69 29.98 29.52 49.2 83.15 30.13 53.63-19.06 48.68-67.56 89.47-95.97 40.78-28.4 84.9-70.93 24.35-146.8-60.55-75.88-99.1-22.8-133.86-33.72Z"/><path d="M270.09 89.45c-28.02-8.76-56.83-23.37-86.33 3.32-29.5 26.7-48.05 50.08-36.07 80.33 11.97 30.26 60.86 11.41 75.06 38.45 14.2 27.04-17 51.58-3.55 75.65 13.46 24.06 23.8 39.49 67.05 24.19 43.24-15.3 39.25-54.24 72.13-77.04 32.88-22.8 68.46-56.93 19.64-117.83-48.83-60.9-79.9-18.3-107.93-27.07Z"/><path d="M273.12 103.26c-22.92-7.15-46.48-19.09-70.6 2.71-24.13 21.8-39.3 40.9-29.5 65.6 9.8 24.71 49.77 9.32 61.39 31.4 11.61 22.09-13.91 42.13-2.9 61.78 11 19.66 19.46 32.25 54.82 19.76 35.37-12.5 32.1-44.3 59-62.91 26.89-18.62 55.98-46.5 16.06-96.24-39.93-49.73-65.35-14.94-88.27-22.1Z"/><path d="M279.57 113.42c-18.57-5.8-37.67-15.49-57.22 2.2-19.55 17.68-31.84 33.17-23.9 53.22 7.93 20.04 40.33 7.56 49.75 25.47 9.41 17.91-11.27 34.17-2.36 50.12 8.92 15.94 15.78 26.16 44.44 16.02 28.66-10.14 26.02-35.93 47.8-51.04 21.8-15.1 45.38-37.71 13.02-78.06s-52.96-12.13-71.53-17.93Z"/></g></svg>