<svg width="86" height="86" fill="none" xmlns="http://www.w3.org/2000/svg"><circle cx="43" cy="43" r="43" fill="#96A9C6"/><path d="m52.87 49.87-5.1-2.54a1.4 1.4 0 0 1-.77-1.26v-1.8l.38-.51a12.2 12.2 0 0 0 1.58-3.1 2.12 2.12 0 0 0 1.24-1.93V36.6c0-.51-.2-1.01-.53-1.4v-2.84c.03-.29.14-2.04-1.12-3.48-1.1-1.25-2.87-1.88-5.28-1.88s-4.2.63-5.29 1.88a4.78 4.78 0 0 0-1.11 3.48v2.84c-.34.39-.54.89-.54 1.4v2.13c0 .65.3 1.26.8 1.66A11.2 11.2 0 0 0 39 44.25v1.77c0 .51-.28.99-.73 1.23l-4.76 2.6A4.8 4.8 0 0 0 31 54.07v1.73c0 2.53 8.02 3.2 12.27 3.2 4.24 0 12.26-.67 12.26-3.2v-1.62a4.79 4.79 0 0 0-2.66-4.3Z" fill="#fff"/></svg>